{
  "accessors": [
    {
      "bufferView": 1,
      "componentType": 5126,
      "count": 1063,
      "max": [
        0.60808998346328735,
        16.624759674072266,
        4.457129955291748
      ],
      "min": [
        -0.60808998346328735,
        0,
        -0.17552000284194946
      ],
      "type": "VEC3"
    },
    {
      "bufferView": 1,
      "byteOffset": 12756,
      "componentType": 5126,
      "count": 1063,
      "max": [
        0.99947440624237061,
        1,
        1
      ],
      "min": [
        -0.99947440624237061,
        -1,
        -1
      ],
      "type": "VEC3"
    },
    {
      "bufferView": 0,
      "componentType": 5125,
      "count": 1734,
      "max": [
        1062
      ],
      "min": [
        0
      ],
      "type": "SCALAR"
    },
    {
      "bufferView": 1,
      "byteOffset": 25512,
      "componentType": 5126,
      "count": 192,
      "max": [
        0.42085000872612,
        16.246660232543945,
        4.2964401245117188
      ],
      "min": [
        -0.42188999056816101,
        15.988260269165039,
        3.0536999702453613
      ],
      "type": "VEC3"
    },
    {
      "bufferView": 1,
      "byteOffset": 27816,
      "componentType": 5126,
      "count": 192,
      "max": [
        0.89475715160369873,
        -0.40814891457557678,
        0.89219677448272705
      ],
      "min": [
        -0.89430660009384155,
        -0.99978286027908325,
        -0.71850532293319702
      ],
      "type": "VEC3"
    },
    {
      "bufferView": 0,
      "byteOffset": 6936,
      "componentType": 5125,
      "count": 288,
      "max": [
        191
      ],
      "min": [
        0
      ],
      "type": "SCALAR"
    }
  ],
  "asset": {
    "extras": {
      "author": "Algirdas Lalys (https://sketchfab.com/alalys)",
      "license": "CC-BY-4.0 (http://creativecommons.org/licenses/by/4.0/)",
      "source": "https://sketchfab.com/3d-models/street-light-b7dfecfd2dd34a5d8a67bf3e48666105",
      "title": "Street Light"
    },
    "generator": "Sketchfab-6.30.0",
    "version": "2.0"
  },
  "bufferViews": [
    {
      "buffer": 0,
      "byteLength": 8088,
      "byteOffset": 0,
      "name": "floatBufferViews",
      "target": 34963
    },
    {
      "buffer": 0,
      "byteLength": 30120,
      "byteOffset": 8088,
      "byteStride": 12,
      "name": "floatBufferViews",
      "target": 34962
    }
  ],
  "buffers": [
    {
      "byteLength": 38208,
      "uri": "scene.bin"
    }
  ],
  "materials": [
    {
      "doubleSided": true,
      "emissiveFactor": [
        0,
        0,
        0
      ],
      "name": "Street_Light_Mat",
      "pbrMetallicRoughness": {
        "baseColorFactor": [
          0.56683456897735596,
          0.56683456897735596,
          0.56683456897735596,
          1
        ],
        "metallicFactor": 0,
        "roughnessFactor": 0.59999999999999998
      }
    },
    {
      "doubleSided": true,
      "emissiveFactor": [
        0,
        0,
        0
      ],
      "name": "Glass",
      "pbrMetallicRoughness": {
        "baseColorFactor": [
          0.051531367003917694,
          0.046678785234689713,
          0.80000007152557373,
          1
        ],
        "metallicFactor": 0,
        "roughnessFactor": 0.59999999999999998
      }
    }
  ],
  "meshes": [
    {
      "name": "Cube_0",
      "primitives": [
        {
          "attributes": {
            "NORMAL": 1,
            "POSITION": 0
          },
          "indices": 2,
          "material": 0,
          "mode": 4
        }
      ]
    },
    {
      "name": "Cube_1",
      "primitives": [
        {
          "attributes": {
            "NORMAL": 4,
            "POSITION": 3
          },
          "indices": 5,
          "material": 1,
          "mode": 4
        }
      ]
    }
  ],
  "nodes": [
    {
      "children": [
        1
      ],
      "name": "RootNode (gltf orientation matrix)",
      "rotation": [
        -0.70710678118654746,
        -0,
        -0,
        0.70710678118654757
      ]
    },
    {
      "children": [
        2
      ],
      "name": "RootNode (model correction matrix)"
    },
    {
      "children": [
        3
      ],
      "name": "Root"
    },
    {
      "children": [
        4,
        5
      ],
      "matrix": [
        0.40000000000000002,
        0,
        0,
        0,
        0,
        0,
        0.40000000000000002,
        0,
        0,
        -0.50317999999999996,
        0,
        0,
        0,
        0,
        0,
        1
      ],
      "name": "Cube"
    },
    {
      "mesh": 0,
      "name": "Cube_0"
    },
    {
      "mesh": 1,
      "name": "Cube_1"
    }
  ],
  "scene": 0,
  "scenes": [
    {
      "name": "OSG_Scene",
      "nodes": [
        0
      ]
    }
  ]
}

